<?xml version="1.0" encoding="utf-8"?>
<!-- Generator: Adobe Illustrator 26.3.1, SVG Export Plug-In . SVG Version: 6.00 Build 0)  -->
<svg version="1.1" id="Layer_1" xmlns="http://www.w3.org/2000/svg" xmlns:xlink="http://www.w3.org/1999/xlink" x="0px" y="0px"
	 viewBox="0 0 32 32" style="enable-background:new 0 0 32 32;" xml:space="preserve">
<style type="text/css">
	.st0{fill:#7FB43C;}
	.st1{fill:#FFFFFF;}
	.st2{font-family:'RobotoCondensed-Bold';}
	.st3{font-size:6px;}
</style>
<g>
	<circle class="st0" cx="16" cy="15.8" r="15"/>
</g>
<g>
	<g>
		<path class="st1" d="M25,18.2c0.1,0.1,0.2,0.1,0.2,0.2s0,0.2,0,0.3c-0.4,1.4-1.2,2.6-2.1,3.7c-0.1,0.1-0.2,0.1-0.3,0.2
			c-0.1,0-0.2,0-0.3,0l-1.6-1c-0.7,0.6-1.5,1.1-2.4,1.4v1.9c0,0.1,0,0.2-0.1,0.3c-0.1,0.1-0.2,0.1-0.3,0.2c-1.4,0.3-2.9,0.3-4.3,0
			c-0.1,0-0.2-0.1-0.3-0.2s-0.1-0.2-0.1-0.3V23c-0.9-0.3-1.7-0.8-2.4-1.4l-1.6,1c-0.1,0.1-0.2,0.1-0.3,0c-0.1,0-0.2-0.1-0.3-0.2
			c-1-1.1-1.7-2.3-2.1-3.7c0-0.1,0-0.2,0-0.3c0-0.1,0.1-0.2,0.2-0.2l1.6-1c-0.2-0.9-0.2-1.8,0-2.7l-1.6-1c-0.1-0.1-0.2-0.1-0.2-0.2
			s0-0.2,0-0.3c0.4-1.4,1.2-2.6,2.1-3.7C8.9,9.2,9,9.1,9.1,9.1s0.2,0,0.3,0l1.6,1c0.7-0.6,1.5-1.1,2.4-1.4V6.8c0-0.1,0-0.2,0.1-0.3
			s0.1-0.1,0.3-0.2c1.4-0.3,2.9-0.3,4.3,0c0.1,0,0.2,0.1,0.3,0.2c0.1,0.1,0.1,0.2,0.1,0.3v1.9c0.9,0.3,1.7,0.8,2.4,1.4l1.6-1
			c0.1-0.1,0.2-0.1,0.3,0c0.1,0,0.2,0.1,0.3,0.2c1,1.1,1.7,2.3,2.1,3.7c0,0.1,0,0.2,0,0.3s-0.1,0.2-0.2,0.2l-1.6,1
			c0.2,0.9,0.2,1.8,0,2.7L25,18.2z"/>
	</g>
</g>
<text transform="matrix(1 0 0 1 11.2495 18.0529)" class="st0 st2 st3">API</text>
</svg>
