<?xml version="1.0" encoding="utf-8"?>
<!-- Generator: Adobe Illustrator 26.3.1, SVG Export Plug-In . SVG Version: 6.00 Build 0)  -->
<svg version="1.1" id="Layer_1" xmlns="http://www.w3.org/2000/svg" xmlns:xlink="http://www.w3.org/1999/xlink" x="0px" y="0px"
	 viewBox="0 0 32 32" style="enable-background:new 0 0 32 32;" xml:space="preserve">
<style type="text/css">
	.st0{fill:#7FB43C;}
	.st1{fill:#FFFFFF;}
	.st2{fill:none;stroke:#7FB43C;stroke-width:0.2;stroke-linecap:round;stroke-miterlimit:10;}
</style>
<g>
	<circle class="st0" cx="16" cy="16.1" r="15"/>
</g>
<g>
	<g>
		<path class="st1" d="M25.1,23c0.2,0.1,0.4,0.2,0.6,0.4c0.2,0.2,0.2,0.4,0.2,0.7v0.4c0,0.2-0.1,0.3-0.2,0.4S25.6,25,25.4,25h-4.7
			c-0.2,0-0.3-0.1-0.4-0.2s-0.2-0.2-0.2-0.4V24c0-0.2,0.1-0.5,0.2-0.7S20.8,23,21,23l0.8-0.2c0.4,0.3,0.8,0.4,1.2,0.4
			c0.5,0,0.9-0.1,1.3-0.4L25.1,23z M23.1,19.2c-0.3,0-0.6,0.1-0.9,0.2c-0.3,0.2-0.5,0.4-0.7,0.7c-0.2,0.3-0.2,0.6-0.2,0.9
			s0.1,0.6,0.2,0.9s0.4,0.5,0.7,0.7c0.3,0.2,0.6,0.2,0.9,0.2s0.6-0.1,0.9-0.2s0.5-0.4,0.7-0.7s0.2-0.6,0.2-0.9s-0.1-0.6-0.2-0.9
			c-0.2-0.3-0.4-0.5-0.7-0.7S23.4,19.2,23.1,19.2z"/>
	</g>
</g>
<g>
	<g>
		<path class="st1" d="M27.4,11.1c0.2,0.1,0.4,0.2,0.6,0.4c0.2,0.2,0.2,0.4,0.2,0.7v0.4c0,0.2-0.1,0.3-0.2,0.4s-0.2,0.2-0.4,0.2H23
			c-0.2,0-0.3-0.1-0.4-0.2s-0.2-0.2-0.2-0.4v-0.4c0-0.2,0.1-0.5,0.2-0.7c0.2-0.2,0.4-0.3,0.6-0.4l0.8-0.2c0.4,0.3,0.8,0.4,1.2,0.4
			c0.5,0,0.9-0.1,1.3-0.4L27.4,11.1z M25.4,7.4c-0.3,0-0.6,0.1-0.9,0.2S24,8,23.8,8.3c-0.2,0.3-0.2,0.6-0.2,0.9s0.1,0.6,0.2,0.9
			c0.2,0.3,0.4,0.5,0.7,0.7s0.6,0.2,0.9,0.2s0.6-0.1,0.9-0.2c0.3-0.2,0.5-0.4,0.7-0.7c0.2-0.3,0.2-0.6,0.2-0.9s-0.1-0.6-0.2-0.9
			c-0.2-0.3-0.4-0.5-0.7-0.7C26,7.4,25.7,7.4,25.4,7.4z"/>
	</g>
</g>
<g>
	<g>
		<path class="st1" d="M9,11.1c0.2,0.1,0.4,0.2,0.6,0.4c0.2,0.2,0.2,0.4,0.2,0.7v0.4c0,0.2-0.1,0.3-0.2,0.4s-0.2,0.2-0.4,0.2H4.6
			c-0.2,0-0.3-0.1-0.4-0.2S4,12.8,4,12.6v-0.4c0-0.2,0.1-0.5,0.2-0.7c0.2-0.2,0.4-0.3,0.6-0.4l0.8-0.2c0.4,0.3,0.8,0.4,1.2,0.4
			c0.5,0,0.9-0.1,1.3-0.4L9,11.1z M6.9,7.4C6.6,7.4,6.3,7.4,6,7.6S5.5,8,5.3,8.3C5.2,8.5,5.1,8.8,5.1,9.2s0.1,0.6,0.2,0.9
			c0.2,0.3,0.4,0.5,0.7,0.7S6.6,11,6.9,11s0.6-0.1,0.9-0.2c0.3-0.2,0.5-0.4,0.7-0.7c0.2-0.3,0.2-0.6,0.2-0.9S8.6,8.5,8.5,8.3
			C8.3,8,8.1,7.8,7.8,7.6C7.5,7.4,7.2,7.4,6.9,7.4z"/>
	</g>
</g>
<g>
	<g>
		<path class="st1" d="M11.3,23c0.2,0.1,0.4,0.2,0.6,0.4s0.2,0.4,0.2,0.7v0.4c0,0.2-0.1,0.3-0.2,0.4S11.8,25,11.6,25H6.9
			c-0.2,0-0.3-0.1-0.4-0.2s-0.2-0.2-0.2-0.4V24c0-0.2,0.1-0.5,0.2-0.7C6.7,23.2,6.9,23,7.2,23L8,22.8c0.4,0.3,0.8,0.4,1.2,0.4
			c0.5,0,0.9-0.1,1.3-0.4L11.3,23z M9.3,19.2c-0.3,0-0.6,0.1-0.9,0.2s-0.5,0.4-0.7,0.7c-0.2,0.3-0.2,0.6-0.2,0.9s0.1,0.6,0.2,0.9
			s0.4,0.5,0.7,0.7s0.6,0.2,0.9,0.2s0.6-0.1,0.9-0.2c0.3-0.2,0.5-0.4,0.7-0.7s0.2-0.6,0.2-0.9s-0.1-0.6-0.2-0.9
			c-0.2-0.3-0.4-0.5-0.7-0.7C9.9,19.3,9.6,19.2,9.3,19.2z"/>
	</g>
</g>
<g>
	<path class="st1" d="M20,12.6h-7.9c-0.3,0-0.5-0.2-0.5-0.5v0c0-0.3,0.2-0.5,0.5-0.5H20c0.3,0,0.5,0.2,0.5,0.5v0
		C20.5,12.3,20.3,12.6,20,12.6z"/>
	<path class="st1" d="M12.2,13L11,14.8c0,0-0.4,1,0.8,1.3c0,0,0.8,0.1,1.2-0.6c0,0,0.4-0.5,0.7,0.1c0,0,0.8,1.1,1.8,0.2
		c0,0,0.6-0.7,1.1-0.1c0,0,0.8,1.2,1.8,0c0,0,0.4-0.7,1,0c0,0,1.2,1.1,1.7-0.4c0,0,0.3-0.6-1.1-2.3H12.2z"/>
	<polyline class="st1" points="11.7,16.1 11.7,20.2 20.4,20.2 20.4,16 	"/>
	<polyline class="st0" points="13.2,19.6 13.2,16.8 15.2,16.8 15.2,19.6 	"/>
	<g>
		<polygon class="st0" points="19.1,18.8 16.5,18.8 16.5,16.8 19.1,16.8 		"/>
	</g>
</g>
<g>
	<line class="st2" x1="12.9" y1="13.8" x2="12.6" y2="14.8"/>
</g>
<line class="st2" x1="15" y1="13.9" x2="15.1" y2="15"/>
<line class="st2" x1="17.2" y1="13.8" x2="17.5" y2="14.9"/>
</svg>
