<?xml version="1.0" encoding="utf-8"?>
<!-- Generator: Adobe Illustrator 26.3.1, SVG Export Plug-In . SVG Version: 6.00 Build 0)  -->
<svg version="1.1" id="Layer_1" xmlns="http://www.w3.org/2000/svg" xmlns:xlink="http://www.w3.org/1999/xlink" x="0px" y="0px"
	 viewBox="0 0 32 32" style="enable-background:new 0 0 32 32;" xml:space="preserve">
<style type="text/css">
	.st0{fill:#7FB43C;}
	.st1{fill:#FFFFFF;}
	.st2{fill:#FFFFFF;stroke:#7FB43C;stroke-width:0.3824;stroke-miterlimit:10;}
</style>
<g>
	<circle class="st0" cx="16" cy="15.8" r="15"/>
</g>
<g>
	<path class="st1" d="M24,21.6H6.7c-0.4,0-0.7-0.3-0.7-0.7V9.9c0-0.4,0.3-0.7,0.7-0.7H24c0.4,0,0.7,0.3,0.7,0.7v10.9
		C24.7,21.2,24.4,21.6,24,21.6z"/>
</g>
<g>
	<path class="st2" d="M25.9,23.4H8.6c-0.4,0-0.7-0.3-0.7-0.7V11.8c0-0.4,0.3-0.7,0.7-0.7h17.3c0.4,0,0.7,0.3,0.7,0.7v10.9
		C26.5,23.1,26.2,23.4,25.9,23.4z"/>
	<g>
		<rect x="9" y="12.4" class="st0" width="16.4" height="4.5"/>
	</g>
	<g>
		<rect x="9.7" y="18.4" class="st0" width="3.7" height="3"/>
	</g>
	<g>
		<rect x="15.3" y="18.4" class="st0" width="3.7" height="3"/>
	</g>
	<g>
		<rect x="20.9" y="18.4" class="st0" width="3.7" height="3"/>
	</g>
</g>
</svg>
